<svg width="1600" height="450" viewBox="0 0 1600 450" fill="none" xmlns="http://www.w3.org/2000/svg">
<path d="M1244.84 450C1170.01 450 1051.36 426.494 911.118 314.55C881.632 291.045 853.125 265.844 825.559 241.466L825.258 241.192C761.24 184.609 695.113 126.157 613.207 85.2026C441.676 -0.568988 231.771 -0.992745 -4.94558 6.90891H-5.69874L-6 3.19491H-5.05856C232.826 -4.73167 443.785 -4.28302 616.747 82.2364C699.368 123.539 765.721 182.216 829.927 238.973C857.531 263.376 886.075 288.602 915.637 312.182C1000.93 380.281 1133.3 458.525 1279.52 444.641C1405.64 432.551 1503.06 357.573 1599.95 275.142L1600.56 274.643L1605 276.936L1604.4 277.41C1506.75 360.464 1408.58 436.041 1280.31 448.305C1268.63 449.431 1256.84 449.997 1245.03 450H1244.84ZM154.008 2.44715C326.669 2.44715 481.819 17.9513 614.337 84.2056C696.431 125.259 762.671 183.911 826.689 240.394L827.066 240.718C854.631 265.096 883.138 290.272 912.549 313.752C989.709 375.345 1109.99 448.754 1244.84 448.754C1256.56 448.747 1268.26 448.189 1279.86 447.083C1407.07 434.895 1504.94 359.841 1602.14 277.136L1600.71 276.388C1503.74 358.844 1406.17 433.748 1279.6 445.887C1132.51 459.896 999.614 381.353 913.98 313.005C884.418 289.399 855.836 264.149 828.233 239.746C764.215 183.064 697.824 124.462 615.429 83.2584C443.182 -2.88714 232.901 -3.46045 -4.19243 4.41628V5.61277C50.0348 3.81807 102.793 2.44715 154.008 2.44715Z" fill="white" fill-opacity="0.19"/>
</svg>
