<svg width="21" height="20" viewBox="0 0 21 20" fill="none" xmlns="http://www.w3.org/2000/svg">
<path d="M9.37436 0.927893C9.6419 0.104489 10.8068 0.104491 11.0743 0.927894L12.8329 6.34008C12.9525 6.70832 13.2957 6.95763 13.6828 6.95763H19.3736C20.2393 6.95763 20.5993 8.06552 19.8989 8.57441L15.295 11.9193C14.9818 12.1469 14.8507 12.5503 14.9703 12.9185L16.7289 18.3307C16.9964 19.1541 16.054 19.8388 15.3535 19.33L10.7497 15.985C10.4364 15.7575 10.0123 15.7575 9.69903 15.985L5.09514 19.33C4.39471 19.8388 3.45229 19.1541 3.71983 18.3307L5.47836 12.9185C5.59801 12.5503 5.46693 12.1469 5.15369 11.9193L0.549809 8.57441C-0.150619 8.06552 0.209354 6.95763 1.07513 6.95763H6.76584C7.15303 6.95763 7.49618 6.70832 7.61583 6.34008L9.37436 0.927893Z" fill="#FFA722"/>
</svg>
