<?xml version="1.0" encoding="iso-8859-1"?>
<!-- Uploaded to: SVG Repo, www.svgrepo.com, Generator: SVG Repo Mixer Tools -->
<svg fill="#000000" height="800px" width="800px" version="1.1" id="Layer_1" xmlns="http://www.w3.org/2000/svg" xmlns:xlink="http://www.w3.org/1999/xlink" 
	 viewBox="0 0 511.999 511.999" xml:space="preserve">
<g>
	<g>
		<path d="M417.628,67.51c-15.501-21.316-40.489-34.041-66.845-34.041H161.217c-26.356,0-51.345,12.725-66.845,34.041L0,197.269
			l97.05,64.7V478.53h317.899V261.969l97.05-64.7L417.628,67.51z M309.941,71.617c-7.874,22.201-29.075,38.148-53.941,38.148
			s-46.067-15.947-53.941-38.148H309.941z M411.021,218.74l-34.22-34.22v255.862H135.198V184.518l-34.22,34.221L54.223,187.57
			l70.998-97.623c11.194-14.726,25.393-18.329,37.325-18.329c8.861,43.478,47.394,76.296,93.451,76.296
			c46.057,0,84.589-32.817,93.451-76.296c11.933,0,26.133,3.602,37.325,18.329l71.001,97.623L411.021,218.74z"/>
	</g>
</g>
</svg>